<?xml version="1.0" encoding="UTF-8"?>
<svg id="Layer_2" data-name="Layer 2" xmlns="http://www.w3.org/2000/svg" viewBox="0 0 133.78 95.58">
  <g id="Layer_1-2" data-name="Layer 1">
    <path d="M11.71,1.81h110.36c5.45,0,9.9,4.46,9.9,9.9v72.16c0,5.45-4.46,9.9-9.9,9.9H11.71c-5.45,0-9.9-4.46-9.9-9.9V11.71C1.81,6.26,6.26,1.81,11.71,1.81h0ZM11.71,1.81h110.36c3.83,0,7.17,2.2,8.81,5.4-.36,1.47-1.11,2.85-2.25,3.99l-55.66,55.66c-3.35,3.35-8.82,3.35-12.16,0L5.15,11.2c-1.14-1.14-1.89-2.53-2.25-3.99C4.54,4.01,7.88,1.81,11.71,1.81h0ZM45.83,51.88L5.78,91.92M88.32,51.88l40.05,40.04" fill="none" stroke="#000" stroke-miterlimit="2.61" stroke-width="3.61"/>
  </g>
</svg>