<?xml version="1.0" encoding="UTF-8"?>
<svg id="Layer_2" data-name="Layer 2" xmlns="http://www.w3.org/2000/svg" viewBox="0 0 531.81 131.07">
  <g id="Layer_1-2" data-name="Layer 1">
    <g>
      <g>
        <circle cx="467.81" cy="64.31" r="64" fill="#414042" stroke-width="0"/>
        <path d="M461.77,33.04c0-2.47,1.96-4.47,4.38-4.47h26.25c2.42,0,4.38,2,4.38,4.47v62.54c0,2.47-1.96,4.47-4.38,4.47h-26.25c-2.42,0-4.38-2-4.38-4.47v-62.54ZM466.15,93.34c0,1.23.98,2.23,2.19,2.23s2.19-1,2.19-2.23-.98-2.23-2.19-2.23-2.19,1-2.19,2.23M474.9,93.34c0,1.23.98,2.23,2.19,2.23s2.19-1,2.19-2.23-.98-2.23-2.19-2.23-2.19,1-2.19,2.23M468.33,33.04c-1.21,0-2.19,1-2.19,2.23s.98,2.23,2.19,2.23h21.88c1.21,0,2.19-1,2.19-2.23s-.98-2.23-2.19-2.23h-21.88ZM466.15,44.2c0,1.23.98,2.23,2.19,2.23h21.88c1.21,0,2.19-1,2.19-2.23s-.98-2.23-2.19-2.23h-21.88c-1.21,0-2.19,1-2.19,2.23M433.33,37.5c-3.62,0-6.56,3-6.56,6.7v31.27c0,3.7,2.94,6.7,6.56,6.7h19.69v8.93h-2.19c-1.21,0-2.19,1-2.19,2.23s.98,2.23,2.19,2.23h6.56v-17.87h-24.06c-1.21,0-2.19-1-2.19-2.23v-31.27c0-1.23.98-2.23,2.19-2.23h24.06v-4.47h-24.06Z" fill="#fff" stroke-width="0"/>
      </g>
      <g>
        <circle cx="333.69" cy="64" r="64" fill="#5aba47" stroke-width="0"/>
        <path d="M320.56,28.68c1.21,0,2.19.99,2.19,2.21v6.62h4.38v-6.62c0-1.22.98-2.21,2.19-2.21s2.19.99,2.19,2.21v6.62h4.38v-6.62c0-1.22.98-2.21,2.19-2.21s2.19.99,2.19,2.21v6.62h4.38v-6.62c0-1.22.98-2.21,2.19-2.21s2.19.99,2.19,2.21v6.62c6.04,0,10.94,4.94,10.94,11.04h6.56c1.21,0,2.19.99,2.19,2.21s-.98,2.21-2.19,2.21h-6.56v4.41h6.56c1.21,0,2.19.99,2.19,2.21s-.98,2.21-2.19,2.21h-6.56v4.41h6.56c1.21,0,2.19.99,2.19,2.21s-.98,2.21-2.19,2.21h-6.56v4.41h6.56c1.21,0,2.19.99,2.19,2.21s-.98,2.21-2.19,2.21h-6.56c0,6.1-4.9,11.04-10.94,11.04v6.62c0,1.22-.98,2.21-2.19,2.21s-2.19-.99-2.19-2.21v-6.62h-4.38v6.62c0,1.22-.98,2.21-2.19,2.21s-2.19-.99-2.19-2.21v-6.62h-4.38v6.62c0,1.22-.98,2.21-2.19,2.21s-2.19-.99-2.19-2.21v-6.62h-4.38v6.62c0,1.22-.98,2.21-2.19,2.21s-2.19-.99-2.19-2.21v-6.62c-6.04,0-10.94-4.94-10.94-11.04h-6.56c-1.21,0-2.19-.99-2.19-2.21s.98-2.21,2.19-2.21h6.56v-4.41h-6.56c-1.21,0-2.19-.99-2.19-2.21s.98-2.21,2.19-2.21h6.56v-4.41h-6.56c-1.21,0-2.19-.99-2.19-2.21s.98-2.21,2.19-2.21h6.56v-4.41h-6.56c-1.21,0-2.19-.99-2.19-2.21s.98-2.21,2.19-2.21h6.56c0-6.1,4.9-11.04,10.94-11.04v-6.62c0-1.22.98-2.21,2.19-2.21M318.37,41.93c-3.62,0-6.56,2.96-6.56,6.62v30.9c0,3.66,2.94,6.62,6.56,6.62h30.63c3.62,0,6.56-2.96,6.56-6.62v-30.9c0-3.66-2.94-6.62-6.56-6.62h-30.63ZM320.56,57.38c0-3.66,2.94-6.62,6.56-6.62h13.13c3.62,0,6.56,2.96,6.56,6.62v13.24c0,3.66-2.94,6.62-6.56,6.62h-13.13c-3.62,0-6.56-2.96-6.56-6.62v-13.24ZM327.12,55.17c-1.21,0-2.19.99-2.19,2.21v13.24c0,1.22.98,2.21,2.19,2.21h13.13c1.21,0,2.19-.99,2.19-2.21v-13.24c0-1.22-.98-2.21-2.19-2.21h-13.13Z" fill="#fff" stroke-width="0"/>
      </g>
      <g>
        <circle cx="199.56" cy="67.07" r="64" fill="#c9262c" stroke-width="0"/>
        <g>
          <path d="M171.12,35.09c-1.21,0-2.19.98-2.19,2.19v13.13c0,1.21-.98,2.19-2.19,2.19s-2.19-.98-2.19-2.19v-13.13c0-3.62,2.94-6.56,6.56-6.56h13.12c1.21,0,2.19.98,2.19,2.19s-.98,2.19-2.19,2.19h-13.12ZM212.69,32.91c0-1.21.98-2.19,2.19-2.19h13.13c3.62,0,6.56,2.94,6.56,6.56v13.13c0,1.21-.98,2.19-2.19,2.19s-2.19-.98-2.19-2.19v-13.13c0-1.21-.98-2.19-2.19-2.19h-13.13c-1.21,0-2.19-.98-2.19-2.19M166.75,78.84c1.21,0,2.19.98,2.19,2.19v13.12c0,1.21.98,2.19,2.19,2.19h13.12c1.21,0,2.19.98,2.19,2.19s-.98,2.19-2.19,2.19h-13.12c-3.62,0-6.56-2.94-6.56-6.56h0v-13.12c0-1.21.98-2.19,2.19-2.19M232.37,78.84c1.21,0,2.19.98,2.19,2.19v13.12c0,3.62-2.94,6.56-6.56,6.56h-13.13c-1.21,0-2.19-.98-2.19-2.19s.98-2.19,2.19-2.19h13.13c1.21,0,2.19-.98,2.19-2.19v-13.12c0-1.21.98-2.19,2.19-2.19" fill="#fff" stroke-width="0"/>
          <path d="M177.69,91.97s-4.38,0-4.38-4.38,4.38-17.5,26.25-17.5,26.25,13.13,26.25,17.5-4.38,4.38-4.38,4.38h-43.75ZM212.69,52.59c0,7.25-5.88,13.13-13.13,13.13s-13.12-5.88-13.12-13.13,5.88-13.13,13.12-13.13,13.13,5.88,13.13,13.13" fill="#fff" stroke-width="0"/>
        </g>
      </g>
      <g>
        <circle cx="64" cy="65.98" r="64" fill="#3f55a5" stroke-width="0"/>
        <g>
          <path d="M72.75,33.81c0,4.05-2.7,7.59-6.56,8.6v22.59c3.78.37,6.56,1.67,6.56,3.22,0,1.84-3.92,3.33-8.75,3.33s-8.75-1.49-8.75-3.33c0-1.55,2.79-2.86,6.56-3.22v-22.59c-4.68-1.23-7.49-6.07-6.28-10.82,1.21-4.75,5.98-7.6,10.66-6.38,3.86,1.01,6.56,4.55,6.56,8.6" fill="#fff" stroke-width="0"/>
          <path d="M29,67.85v7.62c0,1.68.94,3.22,2.42,3.97l28.67,14.55c2.46,1.25,5.36,1.25,7.82,0l28.67-14.55c1.48-.75,2.42-2.29,2.42-3.97v-7.62c0-.44-.26-.84-.67-1.02l-27.77-12.08v4.41l22.87,9.67c.28.12.41.44.29.73-.05.13-.16.24-.29.29l-25.99,11.31c-2.2.96-4.69.96-6.9,0l-25.99-11.31c-.28-.12-.41-.45-.29-.73.06-.13.16-.24.29-.29l22.87-9.67-.06-4.39-27.72,12.06c-.4.17-.67.58-.66,1.02" fill="#fff" stroke-width="0"/>
        </g>
      </g>
    </g>
  </g>
</svg>