<?xml version="1.0" encoding="UTF-8"?>
<svg id="Layer_2" data-name="Layer 2" xmlns="http://www.w3.org/2000/svg" viewBox="0 0 419 24">
  <g id="Layer_1-2" data-name="Layer 1">
    <g>
      <circle cx="125" cy="12" r="12" fill="#3f55a5" stroke-width="0"/>
      <rect x="126" width="60" height="24" fill="#3f55a5" stroke-width="0"/>
      <circle cx="187" cy="12" r="12" fill="#3f55a5" stroke-width="0"/>
      <g>
        <path d="M127.37,6.91c0,.75-.5,1.4-1.37,1.58v4.16c.86.07,1.37.31,1.37.59,0,.34-.72.61-1.61.61s-1.61-.27-1.61-.61c0-.29.51-.53.85-.59v-4.16c-.5-.23-1.02-1.12-.8-1.99.22-.88,1.1-1.4,1.96-1.18.71.19,1.21.84,1.21,1.58" fill="#fff" stroke-width="0"/>
        <path d="M119,13v1.58c0,.31.17.59.45.73l5.33,2.7c.45.23.99.23,1.44,0l5.33-2.7c.28-.14.45-.42.45-.73v-1.44c0-.08-.05-.16-.12-.19l-4.88-2.12v.76l4.18,1.78c.05.02.08.08.05.13-.01.02-.03.04-.05.05l-4.79,2.08c-.41.18-.87.18-1.27,0l-4.79-2.08c-.05-.02-.07-.08-.05-.13.01-.02.03-.04.05-.05l4.66-1.78v-.81s-5.12,2.22-5.12,2.22c-.07.03-.12.11-.12.19" fill="#fff" stroke-width="0"/>
      </g>
      <text transform="translate(135.26 15.48)" fill="#fff" font-family="MyriadPro-Regular, &apos;Myriad Pro&apos;" font-size="10.32"><tspan x="0" y="0" letter-spacing="0em">G</tspan><tspan x="6.75" y="0">ame </tspan><tspan x="27.68" y="0" letter-spacing="0em">D</tspan><tspan x="34.6" y="0">esi</tspan><tspan x="46.27" y="0" letter-spacing="0em">g</tspan><tspan x="51.97" y="0">n</tspan></text>
      <circle cx="347" cy="12" r="12" fill="#c9262c" stroke-width="0"/>
      <ellipse cx="407.5" cy="12" rx="11.5" ry="12" fill="#c9262c" stroke-width="0"/>
      <rect x="348" width="59" height="24" fill="#c9262c" stroke-width="0"/>
      <path d="M342.54,6.52c-.22-.33-.4-.15.02.08v2.42c-.42.22-.6.4-.82.4s-.4-.18-.18-.4v-2.42c-.23-.67.32-1.21.98-1.08h2.42c.22-.13.4.05.4.27s-.18.4-.4.73h-2.42ZM350.19,5.79c0-.22.18-.4.4-.27h2.42c.67-.13,1.21.41,1.54,1.08v2.42c-.33.22-.51.4-.73.4s-.4-.18-.27-.4v-2.42c-.13-.22-.31-.4-.54-.08h-2.42c-.22-.33-.4-.51-.4-.73M341.73,14.26c.22,0,.4.18.82.4v2.42c-.42.22-.24.4-.02.44h2.42c.22-.04.4.14.4.36s-.18.4-.4.64h-2.42c-.67-.24-1.21-.78-.98-1.44h0v-2.42c-.23-.22-.04-.4.18-.4M353.82,14.26c.22,0,.4.18.73.4v2.42c-.33.67-.87,1.21-1.54,1.44h-2.42c-.22-.24-.4-.42-.4-.64s.18-.4.4-.36h2.42c.22-.04.4-.22.54-.44v-2.42c-.13-.22.05-.4.27-.4" fill="#fff" stroke-width="0"/>
      <path d="M344.23,16.28s-.75,0-.75-.74.75-2.97,4.5-2.97,4.5,2.23,4.5,2.97-.75.74-.75.74h-7.5ZM350.23,9.51c0,1.23-1.01,2.23-2.25,2.23s-2.25-1-2.25-2.23,1.01-2.23,2.25-2.23,2.25,1,2.25,2.23" fill="#fff" stroke-width="0"/>
      <text transform="translate(357.45 15.26)" fill="#fff" font-family="MyriadPro-Regular, &apos;Myriad Pro&apos;" font-size="10.32"><tspan x="0" y="0" letter-spacing="0em">S</tspan><tspan x="5.15" y="0">ocial </tspan><tspan x="27.45" y="0" letter-spacing="0em">M</tspan><tspan x="35.8" y="0">edia</tspan></text>
      <g>
        <circle cx="12" cy="12" r="12" fill="#5aba47" stroke-width="0"/>
        <circle cx="96" cy="12" r="12" fill="#5aba47" stroke-width="0"/>
        <rect x="13" width="83" height="24" fill="#5aba47" stroke-width="0"/>
        <text transform="translate(22.71 15.42)" fill="#fff" font-family="MyriadPro-Regular, &apos;Myriad Pro&apos;" font-size="10.32"><tspan x="0" y="0" letter-spacing="-.01em">C</tspan><tspan x="5.87" y="0">ompu</tspan><tspan x="31.7" y="0" letter-spacing="0em">t</tspan><tspan x="35.05" y="0" letter-spacing="0em">er </tspan><tspan x="45.78" y="0" letter-spacing="0em">S</tspan><tspan x="50.93" y="0">cien</tspan><tspan x="68.86" y="0" letter-spacing="0em">c</tspan><tspan x="73.42" y="0">e</tspan></text>
        <path d="M9.57,5.2c.24,0,.43.19.43.43v1.37h1v-1.37c.2-.24.39-.43.63-.43s.43.19.37.43v1.37h1v-1.37c-.09-.24.1-.43.33-.43s.43.19.67.43v1.37h1v-1.37c-.39-.24-.2-.43.04-.43s.96.43.96.43v1.28s1.59.95,1.59,2.09h1.28c.24.04.43.23.43.46s-.19.43-.43.54h-.87v1h.87c.24-.26.43-.07.43.17s-.19.43-.43.83h-.87.87c.24.45.43.64.43.87s-.19.43-.43.13h-.87v1h.87c.24.15.43.34.43.58s-.43.42-.43.42h-1.28s-.95,2.13-2.59,2.13v1.28c.46.24.27.43.04.43s-.43-.19.96-.43v-1.41h-2v1.41c-.24.24-.43.43-.67.43s-.43-.19-.33-.43v-1.41h-1v1.41c.05.24-.14.43-.37.43s-.43-.19-.63-.43v-1.41h-1v1.41c.35.24.16.43-.08.43s-.92-.43-.92-.43v-1.28s-1.63-.95-1.63-2.13h-1.28c-.24,0-.43-.19-.43-.42s.19-.43.43-.58h.91v-1h-.91c-.24.3-.43.11-.43-.13s.19-.43.43-.87h.91-.91c-.24-.41-.43-.6-.43-.83s.19-.43.43-.17h.91v-1h-.91c-.24-.11-.43-.3-.43-.54s.19-.43.43-.46h1.28c0-1.14,1.63-2.09,1.63-2.09v-1.28c0-.24.19-.43.43-.43M8,9.28v6.44c0,.71.57,1.28,1.28,1.28h6.44c.71,0,1.28-.57,1.28-1.28v-6.44c0-.71-.57-1.28-1.28-1.28h-6.44c-.71,0-1.28.57-1.28,1.28ZM11.28,10h2.44c.71,0,1.28.57,1.28,1.28v2.44c0,.71-.57,1.28-1.28,1.28h-2.44c-.71,0-1.28-.57-1.28-1.28v-2.44c0-.71.57-1.28,1.28-1.28ZM11.2,11c-.24-.68-.43-.49-.2-.26v2.56c-.22.24-.03.43.2.7h2.56c.24-.28.43-.47.24-.7v-2.56c.18-.24,0-.43-.24.26h-2.56Z" fill="#fff" stroke-width="0"/>
      </g>
      <circle cx="215" cy="12" r="12" fill="#414042" stroke-width="0"/>
      <ellipse cx="318.5" cy="12" rx="11.5" ry="12" fill="#414042" stroke-width="0"/>
      <rect x="215" width="103" height="24" fill="#414042" stroke-width="0"/>
      <path d="M216.31,5.23h4.39c.45,0,.81.36.81.81v11.39c0,.45-.36.81-.81.81h-4.39c-.45,0-.81-.36-.81-.81V6.04c0-.45.36-.81.81-.81ZM215.75,16.76c0,.22.18.4.4.4s.4-.18.4-.4-.18-.4-.4-.4-.4.18-.4.4M217.36,16.76c0,.22.18.4.4.4s.4-.18.4-.4-.18-.4-.4-.4-.4.18-.4.4M216.15,5.23c-.22.38-.4.56-.4.78s.18.4.4.22h4.03c.22.18.4,0,.4-.22s-.18-.4-.4-.78h-4.03ZM215.75,7.63c0,.22.18.4.4.61h4.03c.22-.2.4-.38.4-.61s-.18-.4-.4-.39h-4.03c-.22-.01-.4.17-.4.39M209.7,6.23c-.67.18-1.2,1.39-1.2,1.39v5.4c0,.67.54,1.21,1.21,1.21h3.79v2h-.57c-.22-.14-.4.04-.4.26s.18.4.4.74h1.57v-4h-4.6c-.22,0-.4-.18-.4-.4v-5.19c0-.22.18-.4.4-.4h4.6v-1h-4.8Z" fill="#fff" stroke-width="0"/>
      <text transform="translate(225.81 15.48)" fill="#fff" font-family="MyriadPro-Regular, &apos;Myriad Pro&apos;" font-size="10.32"><tspan x="0" y="0" letter-spacing=".01em">I</tspan><tspan x="2.57" y="0" letter-spacing="0em">n</tspan><tspan x="8.3" y="0" letter-spacing="-.01em">f</tspan><tspan x="11.17" y="0">o</tspan><tspan x="16.84" y="0" letter-spacing="0em">r</tspan><tspan x="20.25" y="0">m</tspan><tspan x="28.86" y="0" letter-spacing="0em">a</tspan><tspan x="33.79" y="0">tion</tspan><tspan x="51.01" y="0" letter-spacing="-.04em"> </tspan><tspan x="52.78" y="0" letter-spacing="-.07em">T</tspan><tspan x="57.17" y="0">echology</tspan></text>
    </g>
  </g>
</svg>