<?xml version="1.0" encoding="UTF-8"?>
<svg id="Layer_2" data-name="Layer 2" xmlns="http://www.w3.org/2000/svg" viewBox="0 0 329.9 465.96">
  <g id="Layer_2-2" data-name="Layer 2">
    <g>
      <g>
        <path d="M255.62,346.21c11.47-13.14,19.62-28.58,25.38-44.64h17.57c17.28,0,31.34-14.06,31.34-31.34v-.53c0-17.28-14.06-31.34-31.34-31.34h-5.24c1.98-29.97-1.02-53.14-1.3-55.14-.21-1.53-1.09-2.88-2.41-3.68-1.31-.8-2.92-.97-4.38-.46l-34.2,12.03c-9.38,3.31-19.8,2.54-28.93-2.29-6.56-3.46-13.83-5.21-21.13-5.27v-.36c-1.12.12-2.25.18-3.37.19-2.28.49-4.59.79-6.89.87v.35c-3.22.7-6.38,1.73-9.41,3.13l-1.37.63c-3.17,1.47-6.5,2.43-9.88,2.92v-.31c-1.82.26-3.64.41-5.44.41-1.64,0-3.24-.11-4.81-.29v.19c-1.65-.24-3.28-.61-4.89-1.09-2.72-.68-5.31-1.66-7.75-2.86-2.39-.38-4.69-.98-6.9-1.76-4.01-.17-7.81-.92-11.37-2.16v.15c-7.35.07-14.72,1.87-21.47,5.43-8.79,4.65-19.22,5.41-28.59,2.11l-34.2-12.03c-1.46-.51-3.06-.34-4.38.46-1.31.81-2.2,2.16-2.41,3.68-.27,2-3.27,25.17-1.3,55.14h-5.24c-17.28,0-31.34,14.06-31.34,31.34v.53c0,17.28,14.06,31.34,31.34,31.34h17.57c5.75,16.06,13.9,31.5,25.38,44.64,9.57,10.96,20.83,19.55,33.68,25.74v25.88l-68.87,18.4c-18.77,5.01-31.88,22.08-31.88,41.51v3.08c0,2.83,2.3,5.13,5.13,5.13s5.13-2.29,5.13-5.13v-3.08c0-14.79,9.98-27.8,24.28-31.61l72.67-19.42c2.24-.6,3.8-2.63,3.8-4.95v-25.51c13.95,5.05,29.56,7.6,46.74,7.6s32.78-2.55,46.74-7.6v25.51c0,2.32,1.56,4.36,3.8,4.95l72.68,19.42c14.29,3.81,24.27,16.82,24.27,31.61v3.08c0,2.83,2.3,5.13,5.13,5.13s5.13-2.29,5.13-5.13v-3.08c0-19.43-13.11-36.5-31.88-41.51l-68.87-18.4v-25.88c12.85-6.19,24.1-14.78,33.68-25.74ZM292.46,248.62h6.1c11.63,0,21.09,9.46,21.09,21.09v.53c0,11.63-9.46,21.09-21.09,21.09h-14.23c4.24-14.43,6.74-29.06,8.13-42.71ZM31.34,291.32c-11.63,0-21.09-9.46-21.09-21.09v-.53c0-11.63,9.46-21.09,21.09-21.09h6.1c1.39,13.64,3.89,28.27,8.13,42.71h-14.23ZM164.95,373.6c-35.25,0-63.15-11.47-82.92-34.11-40.18-45.98-36.62-125.69-34.64-148.58l28.06,9.87c12.07,4.25,25.48,3.26,37.12-2.89,9.8-5.17,21.65-5.49,31.71-.84l1.37.63c12.27,5.66,26.33,5.66,38.6,0l1.37-.63c10.06-4.65,21.92-4.33,32.05,1.02,11.31,5.97,24.71,6.95,36.78,2.71l28.07-9.87c1.99,22.87,5.58,102.52-34.62,148.56-19.78,22.64-47.68,34.13-82.95,34.13Z" fill="#231f20" stroke-width="0"/>
        <path d="M137.88,259.44l4.34-2.73,4.12-3.08c-5.45-8.56-14.77-13.68-24.92-13.68s-19.47,5.12-24.94,13.7l-.21.33c-1.5,2.39-.68,5.38,1.7,6.89.81.51,1.71.75,2.62.75,1.77,0,3.54-.92,4.55-2.49,3.56-5.59,9.65-8.93,16.28-8.93s12.71,3.34,16.46,9.24Z" fill="#231f20" stroke-width="0"/>
        <path d="M208.48,239.95c-10.15,0-19.47,5.12-24.94,13.7l-.21.33c-1.5,2.39-.68,5.38,1.7,6.89.81.51,1.71.75,2.62.75,1.77,0,3.54-.92,4.55-2.49,3.56-5.59,9.65-8.93,16.27-8.93s12.71,3.34,16.47,9.24l4.34-2.73,4.12-3.08c-5.45-8.56-14.77-13.68-24.92-13.68Z" fill="#231f20" stroke-width="0"/>
        <path d="M48.95,140.71h25.16c2.83,0,5.13-2.29,5.13-5.13s-2.3-5.13-5.13-5.13h-25.16c-2.83,0-5.13,2.29-5.13,5.13s2.3,5.13,5.13,5.13Z" fill="#231f20" stroke-width="0"/>
        <path d="M255.79,140.71h25.16c2.83,0,5.13-2.29,5.13-5.13s-2.3-5.13-5.13-5.13h-25.16c-2.83,0-5.13,2.29-5.13,5.13s2.3,5.13,5.13,5.13Z" fill="#231f20" stroke-width="0"/>
        <path d="M229.18,60.66c1.31,0,2.62-.5,3.62-1.5l17.79-17.79c2-2,2-5.25,0-7.25-2-2-5.25-2-7.25,0l-17.79,17.79c-2,2-2,5.25,0,7.25,1,1,2.31,1.5,3.62,1.5Z" fill="#231f20" stroke-width="0"/>
        <path d="M97.09,59.16c1,1,2.31,1.5,3.62,1.5s2.62-.5,3.62-1.5c2-2,2-5.25,0-7.25l-17.79-17.79c-2-2-5.25-2-7.25,0-2,2-2,5.25,0,7.25l17.79,17.79Z" fill="#231f20" stroke-width="0"/>
        <path d="M164.95,35.41c2.83,0,5.13-2.29,5.13-5.13V5.13c0-2.83-2.3-5.13-5.13-5.13s-5.13,2.29-5.13,5.13v25.16c0,2.83,2.3,5.13,5.13,5.13Z" fill="#231f20" stroke-width="0"/>
        <path d="M201.65,305.73c-2.42-1.47-5.57-.7-7.04,1.72l-.34.57c-6.26,10.34-17.22,16.52-29.32,16.52s-23.05-6.18-29.32-16.53l-.34-.56c-1.47-2.42-4.62-3.19-7.04-1.72-2.42,1.47-3.19,4.62-1.72,7.04l.34.56c8.14,13.44,22.38,21.47,38.09,21.47s29.95-8.03,38.09-21.46l.34-.56c1.47-2.42.7-5.57-1.72-7.04Z" fill="#231f20" stroke-width="0"/>
      </g>
      <g id="Layer_2-2" data-name="Layer 2-2">
        <g>
          <path d="M144.74,137.33h38.81c1.26,0,2.28-1.02,2.28-2.28v-38.81c0-1.26-1.02-2.28-2.28-2.28h-38.81c-1.26,0-2.28,1.02-2.28,2.28v38.81c0,1.26,1.02,2.28,2.28,2.28ZM147.01,98.52h34.25v34.25h-34.25v-34.25Z" fill="#231f20" stroke-width="0"/>
          <path d="M228.4,137.34c0-5.1-4.15-9.26-9.26-9.26-4.31,0-7.94,2.97-8.96,6.98h-9.68v-17.99h9.68c1.02,4.01,4.65,6.98,8.96,6.98,5.1,0,9.26-4.15,9.26-9.26s-4.15-9.26-9.26-9.26c-4.31,0-7.94,2.97-8.96,6.98h-9.68v-17.99h9.68c1.02,4.01,4.65,6.98,8.96,6.98,5.1,0,9.26-4.15,9.26-9.25s-4.15-9.26-9.26-9.26c-4.31,0-7.94,2.97-8.96,6.98h-9.68v-9.23c0-1.26-1.02-2.28-2.28-2.28h-10.83v-10.51c4.01-1.02,6.98-4.65,6.98-8.96,0-5.1-4.15-9.26-9.25-9.26s-9.26,4.15-9.26,9.26c0,4.31,2.97,7.94,6.98,8.96v10.51h-17.99v-10.51c4.01-1.02,6.98-4.65,6.98-8.96,0-5.1-4.15-9.26-9.26-9.26s-9.25,4.15-9.25,9.26c0,4.31,2.97,7.94,6.98,8.96v10.51h-17.99v-10.51c4.01-1.02,6.98-4.65,6.98-8.96,0-5.1-4.15-9.26-9.26-9.26s-9.25,4.15-9.25,9.26c0,4.31,2.97,7.94,6.98,8.96v10.51h-10.15c-1.26,0-2.28,1.02-2.28,2.28v9.23h-9.69c-1.02-4.01-4.65-6.98-8.96-6.98-5.1,0-9.26,4.15-9.26,9.26s4.15,9.25,9.26,9.25c4.31,0,7.94-2.97,8.96-6.98h9.69v17.99h-9.69c-1.02-4.01-4.65-6.98-8.96-6.98-5.1,0-9.26,4.15-9.26,9.26s4.15,9.26,9.26,9.26c4.31,0,7.94-2.97,8.96-6.98h9.69v17.99h-9.69c-1.02-4.01-4.65-6.98-8.96-6.98-5.1,0-9.26,4.15-9.26,9.26s4.15,9.26,9.26,9.26c4.31,0,7.94-2.97,8.96-6.98h9.69v11.75c0,1.26,1.02,2.28,2.28,2.28h10.15v9.69c-4.01,1.02-6.98,4.65-6.98,8.96,0,5.1,4.15,9.25,9.25,9.25s9.26-4.15,9.26-9.25c0-4.31-2.97-7.94-6.98-8.96v-9.69h17.99v9.69c-4.01,1.02-6.98,4.65-6.98,8.96,0,5.1,4.15,9.25,9.25,9.25s9.26-4.15,9.26-9.25c0-4.31-2.97-7.94-6.98-8.96v-9.69h17.99v9.69c-4.01,1.02-6.98,4.65-6.98,8.96,0,5.1,4.15,9.25,9.26,9.25s9.25-4.15,9.25-9.25c0-4.31-2.97-7.94-6.98-8.96v-9.69h10.83c1.26,0,2.28-1.02,2.28-2.28v-11.75h9.68c1.02,4.01,4.65,6.98,8.96,6.98,5.1,0,9.26-4.15,9.26-9.26ZM219.14,110.1c2.59,0,4.7,2.11,4.7,4.7s-2.11,4.7-4.7,4.7-4.69-2.11-4.69-4.7,2.11-4.7,4.69-4.7ZM219.14,87.55c2.59,0,4.7,2.11,4.7,4.7s-2.11,4.69-4.7,4.69-4.69-2.11-4.69-4.69,2.11-4.7,4.69-4.7ZM106.65,96.94c-2.59,0-4.7-2.11-4.7-4.69s2.11-4.7,4.7-4.7,4.69,2.11,4.69,4.7-2.11,4.69-4.69,4.69ZM106.65,119.49c-2.59,0-4.7-2.11-4.7-4.7s2.11-4.7,4.7-4.7,4.69,2.11,4.69,4.7-2.11,4.7-4.69,4.7ZM106.65,142.04c-2.59,0-4.7-2.11-4.7-4.7s2.11-4.7,4.7-4.7,4.69,2.11,4.69,4.7-2.11,4.7-4.69,4.7ZM180.4,58.99c0-2.59,2.11-4.7,4.7-4.7s4.69,2.11,4.69,4.7-2.11,4.7-4.69,4.7-4.7-2.11-4.7-4.7ZM157.85,58.99c0-2.59,2.11-4.7,4.69-4.7s4.7,2.11,4.7,4.7-2.11,4.7-4.7,4.7-4.69-2.11-4.69-4.7ZM135.31,58.99c0-2.59,2.11-4.7,4.69-4.7s4.7,2.11,4.7,4.7-2.11,4.7-4.7,4.7-4.69-2.11-4.69-4.7ZM144.71,172.3c0,2.59-2.11,4.69-4.7,4.69s-4.69-2.11-4.69-4.69,2.11-4.7,4.69-4.7,4.7,2.11,4.7,4.7ZM167.25,172.3c0,2.59-2.11,4.69-4.7,4.69s-4.69-2.11-4.69-4.69,2.11-4.7,4.69-4.7,4.7,2.11,4.7,4.7ZM189.79,172.3c0,2.59-2.11,4.69-4.69,4.69s-4.7-2.11-4.7-4.69,2.11-4.7,4.7-4.7,4.69,2.11,4.69,4.7ZM195.94,149.09h-66.08v-66.07h66.08v66.07h0ZM219.14,142.04c-2.59,0-4.69-2.11-4.69-4.7s2.11-4.7,4.69-4.7,4.7,2.11,4.7,4.7-2.11,4.7-4.7,4.7Z" fill="#231f20" stroke-width="0"/>
        </g>
      </g>
    </g>
  </g>
</svg>