<?xml version="1.0" encoding="UTF-8"?>
<svg id="Layer_2" data-name="Layer 2" xmlns="http://www.w3.org/2000/svg" viewBox="0 0 124.61 124.36">
  <g id="Layer_1-2" data-name="Layer 1">
    <g>
      <path d="M106.1,100.77l-11.79-7.86-10.48-6.99c-2.02-1.34-4.74-.9-6.24,1.01l-6.49,8.34c-1.39,1.81-3.9,2.33-5.9,1.22-4.4-2.45-9.61-4.75-21.09-16.25-11.48-11.5-13.8-16.69-16.25-21.09-1.11-2-.59-4.51,1.22-5.9l8.34-6.49c1.92-1.49,2.36-4.21,1.01-6.23l-6.77-10.16-8.08-12.12c-1.38-2.06-4.13-2.68-6.25-1.41l-9.31,5.59c-2.52,1.48-4.37,3.88-5.17,6.69C.31,38.42-.2,58.9,32.63,91.73c32.83,32.83,53.31,32.31,62.6,29.77,2.81-.8,5.2-2.65,6.69-5.17l5.59-9.31c1.27-2.12.65-4.88-1.41-6.25h0Z" fill="#fff" fill-rule="evenodd" stroke="#000" stroke-miterlimit="2.61" stroke-width="3.61"/>
      <path d="M62.27,1.81c15.49,0,30.99,5.91,42.81,17.73,11.82,11.82,17.73,27.32,17.73,42.81M62.27,18.89c11.12,0,22.25,4.24,30.73,12.73,8.49,8.48,12.73,19.61,12.73,30.73M62.27,35.97c6.75,0,13.5,2.57,18.65,7.72,5.15,5.15,7.72,11.9,7.72,18.65" fill="none" stroke="#000" stroke-miterlimit="2.61" stroke-width="3.61"/>
    </g>
  </g>
</svg>