<?xml version="1.0" encoding="UTF-8"?>
<svg id="Layer_2" data-name="Layer 2" xmlns="http://www.w3.org/2000/svg" viewBox="0 0 1952.87 1275.45">
  <g id="_ëîé_1" data-name="—ëîé_1">
    <g>
      <path d="M0,1253.52c0,12.06,9.87,21.93,21.93,21.93h1909.01c12.06,0,21.93-9.87,21.93-21.93V182.59H0v1070.94Z" fill="#fff" stroke-width="0"/>
      <path d="M1938.98,0H15.21C7.57,0,1.32,5.44,1.32,12.09v146.68h1951.55V12.09c0-6.65-6.25-12.09-13.89-12.09Z" fill="#085269" stroke-width="0"/>
      <path d="M1745.93,42.82c0,9.79,7.94,17.73,17.73,17.73s17.73-7.94,17.73-17.73-7.94-17.73-17.73-17.73-17.73,7.94-17.73,17.73Z" fill="#eb3449" stroke-width="0"/>
      <path d="M1807.97,42.82c0,9.79,7.94,17.73,17.73,17.73s17.73-7.94,17.73-17.73-7.94-17.73-17.73-17.73-17.73,7.94-17.73,17.73Z" fill="#fdcd02" stroke-width="0"/>
      <path d="M1870.01,42.82c0,9.79,7.94,17.73,17.73,17.73s17.73-7.94,17.73-17.73-7.94-17.73-17.73-17.73-17.73,7.94-17.73,17.73Z" fill="#7dc31f" stroke-width="0"/>
      <rect y="91.29" width="1952.87" height="91.29" fill="#e3e3e3" stroke-width="0"/>
      <rect x="250.22" y="111.93" width="1575.48" height="50.45" fill="#fff" stroke-width="0"/>
    </g>
  </g>
</svg>