<?xml version="1.0" encoding="UTF-8"?>
<svg id="Layer_2" data-name="Layer 2" xmlns="http://www.w3.org/2000/svg" viewBox="0 0 44.97 52.66">
  <g id="Layer_1-2" data-name="Layer 1">
    <path d="M44,48.45c.25-.14.62,0,.83.32.21.32.18.69-.07.84-2.42,1.39-4.76,2.29-7,2.73-4.26.84-8.19.01-11.81-2.31-3.6-2.31-6.85-6.09-9.77-11.18C11.35,30.42,7.4,18.34,4.29,3.34L1.16,20.75c-.06.31-.36.44-.68.29-.32-.16-.53-.54-.47-.85L3.57.4c.01-.12.05-.22.13-.29.21-.2.58-.12.83.16l.08.09c.08.07.16.15.21.25,1.77,2.04,11.01,12.68,11.29,12.84.31.18.5.57.41.87-.08.3-.41.39-.72.21-.39-.23-7.37-8.2-10.5-11.81,3.1,15.15,7.03,27.3,11.84,35.69,2.78,4.84,5.83,8.42,9.18,10.57,3.32,2.14,6.97,2.89,10.94,2.11,2.15-.42,4.4-1.3,6.75-2.64h0Z" fill="#231f20" stroke-width="0"/>
  </g>
</svg>